<?xml version="1.0" standalone="no"?>
<!DOCTYPE svg PUBLIC "-//W3C//DTD SVG 20010904//EN"
 "http://www.w3.org/TR/2001/REC-SVG-20010904/DTD/svg10.dtd">
<svg version="1.0" xmlns="http://www.w3.org/2000/svg"
 width="512.000000pt" height="512.000000pt" viewBox="0 0 512.000000 512.000000"
 preserveAspectRatio="xMidYMid meet">
<metadata>
Created by potrace 1.11, written by Peter Selinger 2001-2013
</metadata>
<g transform="translate(0.000000,512.000000) scale(0.100000,-0.100000)"
fill="#000000" stroke="none">
<path d="M2215 3559 c-78 -13 -182 -56 -254 -104 -45 -30 -367 -346 -996 -975
l-930 -930 245 0 245 0 420 420 420 420 677 0 678 0 0 -420 0 -420 869 0 c955
0 953 0 1086 60 89 41 190 116 235 175 19 25 40 51 45 58 42 49 99 189 114
282 3 22 6 225 6 450 0 402 0 412 -24 495 -31 110 -88 211 -166 294 -84 90
-245 176 -365 195 -79 13 -2229 13 -2305 0z m505 -584 l0 -245 -507 0 -508 0
220 221 c163 164 233 227 270 245 48 23 58 24 288 24 l237 0 0 -245z m1830
211 c66 -35 112 -83 148 -156 l27 -55 3 -388 c3 -454 1 -474 -75 -567 -30 -38
-65 -67 -102 -86 l-56 -29 -712 -3 -713 -3 0 661 0 661 713 -3 712 -3 55 -29z"/>
</g>
</svg>
