<svg height="600" width="1000" xmlns="http://www.w3.org/2000/svg">
<title>Your Diagram Title</title>
<!-- Generated with SankeyMATIC: 14/08/2022, 14:52:27 -->
<rect height="600" width="1000" fill="#ffffff"></rect>
<g transform="translate(86.03125,18)">
<g id="sankey_flows">
<path id="flow1" d="M9 332.01644C44.57009 332.01644 91.99688 332.48087 127.56696 332.48087" fill="none" stroke="#ff7f0e" stroke-width="459.03825" opacity="0.45"><title>Roles → Not Applied: 66</title></path>
<path id="flow0" d="M9 53.81144C44.57009 53.81144 91.99688 48.68587 127.56696 48.68587" fill="none" stroke="#1f77b4" stroke-width="97.37175" opacity="0.45"><title>Roles → Applied: 14</title></path>
<path id="flow2" d="M136.56696 41.73075C171.86002 41.73075 218.91743 47.54448 254.21049 47.54448" fill="none" stroke="#2ca02c" stroke-width="69.55125" opacity="0.45"><title>Applied → Test: 10</title></path>
<path id="flow7" d="M263.21049 57.97716C395.86788 57.97716 572.7444 319.2987 705.40179 319.2987" fill="none" stroke="#ff7f0e" stroke-width="48.68587" opacity="0.45"><title>Test → Not Shortlisted: 7</title></path>
<path id="flow4" d="M136.56696 86.93906C172.18299 86.93906 219.67102 113.48116 255.28704 113.48116" fill="none" stroke="#9467bd" stroke-width="20.86538" opacity="0.45"><title>Applied → Essay Round: 3</title></path>
<path id="flow13" d="M264.28704 113.48116C297.09603 113.48116 340.84135 176.10033 373.65034 176.10033" fill="none" stroke="#7f7f7f" stroke-width="20.86538" opacity="0.45"><title>Essay Round → Ghosted: 3</title></path>
<path id="flow5" d="M263.21049 26.6791C319.83506 26.6791 395.33449 51.82725 451.95907 51.82725" fill="none" stroke="#2ca02c" stroke-width="13.91025" opacity="0.45"><title>Test → Test 2: 2</title></path>
<path id="flow14" d="M713.32267 6.95512C736.31145 6.95512 766.96316 21.75258 789.95194 21.75258" fill="none" stroke="#bcbd22" stroke-width="13.91025" opacity="0.45"><title>Day 1 Shortlist → Offers: 2</title></path>
<path id="flow3" d="M136.56696 3.47756C306.89368 3.47756 533.99596 3.47756 704.32267 3.47756" fill="none" stroke="#d62728" stroke-width="6.95512" opacity="0.45"><title>Applied → Day 1 Shortlist: 1</title></path>
<path id="flow6" d="M263.21049 16.24641C369.16655 16.24641 510.4413 30.52664 616.39736 30.52664" fill="none" stroke="#d62728" stroke-width="6.95512" opacity="0.45"><title>Test → Day 2 Shortlist: 1</title></path>
<path id="flow8" d="M460.95907 48.34969C494.3742 48.34969 538.92772 62.68561 572.34285 62.68561" fill="none" stroke="#2ca02c" stroke-width="6.95512" opacity="0.45"><title>Test 2 → Test 3: 1</title></path>
<path id="flow9" d="M460.95907 55.30481C493.92246 55.30481 537.87365 116.20761 570.83705 116.20761" fill="none" stroke="#8c564b" stroke-width="6.95512" opacity="0.45"><title>Test 2 → GD: 1</title></path>
<path id="flow10" d="M581.34285 62.68561C618.2368 62.68561 667.42872 10.43269 704.32267 10.43269" fill="none" stroke="#d62728" stroke-width="6.95512" opacity="0.45"><title>Test 3 → Day 1 Shortlist: 1</title></path>
<path id="flow11" d="M579.83705 116.20761C598.05968 116.20761 622.35652 171.40594 640.57915 171.40594" fill="none" stroke="#e377c2" stroke-width="6.95512" opacity="0.45"><title>GD → Pre-Interview: 1</title></path>
<path id="flow12" d="M649.57915 171.40594C666.32594 171.40594 688.65499 347.1192 705.40179 347.1192" fill="none" stroke="#ff7f0e" stroke-width="6.95512" opacity="0.45"><title>Pre-Interview → Not Shortlisted: 1</title></path>
<path id="flow15" d="M798.95194 18.27502C827.15698 18.27502 864.76371 3.47756 892.96875 3.47756" fill="none" stroke="#17becf" stroke-width="6.95512" opacity="0.45"><title>Offers → Selected: 1</title></path>
<path id="flow16" d="M798.95194 25.23014C826.55698 25.23014 863.36371 42.87511 890.96875 42.87511" fill="none" stroke="#1f77b4" stroke-width="6.95512" opacity="0.45"><title>Offers → Rejected: 1</title></path>
</g>
<g id="sankey_nodes">
<g class="node">
<rect id="r0" class="for_r0" x="0" y="5.12557" height="556.41" width="9" fill="#17becf" fill-opacity="1"><title>Roles:
80</title></rect>
</g>
<g class="node">
<rect id="r1" class="for_r1" x="127.56696" y="0" height="97.37175" width="9" fill="#1f77b4" fill-opacity="1"><title>Applied:
14</title></rect>
</g>
<g class="node">
<rect id="r2" class="for_r2" x="127.56696" y="102.96175" height="459.03825" width="9" fill="#ff7f0e" fill-opacity="1"><title>Not Applied:
66</title></rect>
</g>
<g class="node">
<rect id="r3" class="for_r3" x="255.13393" y="3.66459" height="69.55125" width="9" fill="#2ca02c" fill-opacity="1" transform="translate(-0.92344,9.10426)"><title>Test:
10</title></rect>
</g>
<g class="node">
<rect id="r4" class="for_r4" x="637.83482" y="70.36163" height="13.91025" width="9" fill="#d62728" fill-opacity="1" transform="translate(66.48785,-70.36163)"><title>Day 1 Shortlist:
2</title></rect>
</g>
<g class="node">
<rect id="r5" class="for_r5" x="255.13393" y="80.97947" height="20.86538" width="9" fill="#9467bd" fill-opacity="1" transform="translate(0.15312,22.069)"><title>Essay Round:
3</title></rect>
</g>
<g class="node">
<rect id="r6" class="for_r6" x="382.70089" y="64.91337" height="13.91025" width="9" fill="#2ca02c" fill-opacity="1" transform="translate(69.25818,-20.04124)"><title>Test 2:
2</title></rect>
</g>
<g class="node">
<rect id="r7" class="for_r7" x="382.70089" y="52.36824" height="6.95512" width="9" fill="#d62728" fill-opacity="1" transform="translate(233.69647,-25.31916)"><title>Day 2 Shortlist:
1</title></rect>
</g>
<g class="node">
<rect id="r8" class="for_r8" x="765.40179" y="4.36674" height="55.641" width="9" fill="#ff7f0e" fill-opacity="1" transform="translate(-60,290.58902)"><title>Not Shortlisted:
8</title></rect>
</g>
<g class="node">
<rect id="r9" class="for_r9" x="510.26786" y="72.22127" height="6.95512" width="9" fill="#2ca02c" fill-opacity="1" transform="translate(62.07499,-13.01322)"><title>Test 3:
1</title></rect>
</g>
<g class="node">
<rect id="r10" class="for_r10" x="510.26786" y="59.67615" height="6.95512" width="9" fill="#8c564b" fill-opacity="1" transform="translate(60.56919,53.0539)"><title>GD:
1</title></rect>
</g>
<g class="node">
<rect id="r11" class="for_r11" x="637.83482" y="57.8165" height="6.95512" width="9" fill="#e377c2" fill-opacity="1" transform="translate(2.74432,110.11187)"><title>Pre-Interview:
1</title></rect>
</g>
<g class="node">
<rect id="r12" class="for_r12" x="382.70089" y="84.41362" height="20.86538" width="9" fill="#7f7f7f" fill-opacity="1" transform="translate(-9.05055,81.25403)"><title>Ghosted:
3</title></rect>
</g>
<g class="node">
<rect id="r13" class="for_r13" x="765.40179" y="70.91293" height="13.91025" width="9" fill="#bcbd22" fill-opacity="1" transform="translate(24.55016,-56.11547)"><title>Offers:
2</title></rect>
</g>
<g class="node">
<rect id="r14" class="for_r14" x="892.96875" y="70.89718" height="6.95512" width="9" fill="#17becf" fill-opacity="1" transform="translate(0,-70.89718)"><title>Selected:
1</title></rect>
</g>
<g class="node">
<rect id="r15" class="for_r15" x="892.96875" y="83.4423" height="6.95512" width="9" fill="#1f77b4" fill-opacity="1" transform="translate(-2,-44.04475)"><title>Rejected:
1</title></rect>
</g>
</g>
<g id="sankey_labels" font-family="sans-serif" font-size="15px" font-weight="400" fill="#000000">
<rect id="label0_bg" class="for_r0" x="-74.03125" y="272.15558" width="72.5" height="22" rx="3.75" fill="#fff" fill-opacity="0.55" stroke="none" stroke-width="0" stroke-opacity="0"></rect>
<text id="label0" class="for_r0" text-anchor="end" x="-5.90625" y="283.33057" dy="5.074999999999999">Roles: 80</text>
<rect id="label1_bg" class="for_r1" x="41.84822" y="37.51087" width="84.1875" height="22" rx="3.75" fill="#fff" fill-opacity="0.55" stroke="none" stroke-width="0" stroke-opacity="0"></rect>
<text id="label1" class="for_r1" text-anchor="end" x="121.66071" y="48.68587" dy="5.074999999999999">Applied: 14</text>
<rect id="label2_bg" class="for_r2" x="15.16072" y="321.30588" width="110.875" height="22" rx="3.75" fill="#fff" fill-opacity="0.55" stroke="none" stroke-width="0" stroke-opacity="0"></rect>
<text id="label2" class="for_r2" text-anchor="end" x="121.66071" y="332.48087" dy="5.074999999999999">Not Applied: 66</text>
<rect id="label3_bg" class="for_r3" x="191.94644" y="27.26522" width="61.65625" height="22" rx="3.75" fill="#fff" fill-opacity="0.55" stroke="none" stroke-width="0" stroke-opacity="0" transform="translate(-0.92344,9.10426)"></rect>
<text id="label3" class="for_r3" text-anchor="end" x="249.22768" y="38.44022" dy="5.074999999999999" transform="translate(-0.92344,9.10426)">Test: 10</text>
<rect id="label4_bg" class="for_r4" x="512.95984" y="66.14175" width="123.34375" height="22" rx="3.75" fill="#fff" fill-opacity="0.55" stroke="none" stroke-width="0" stroke-opacity="0" transform="translate(66.48785,-70.36163)"></rect>
<text id="label4" class="for_r4" text-anchor="end" x="631.92857" y="77.31675" dy="5.074999999999999" transform="translate(66.48785,-70.36163)">Day 1 Shortlist: 2</text>
<rect id="label5_bg" class="for_r5" x="138.57925" y="80.23716" width="115.02344" height="22" rx="3.75" fill="#fff" fill-opacity="0.55" stroke="none" stroke-width="0" stroke-opacity="0" transform="translate(0.15312,22.069)"></rect>
<text id="label5" class="for_r5" text-anchor="end" x="249.22768" y="91.41216" dy="5.074999999999999" transform="translate(0.15312,22.069)">Essay Round: 3</text>
<rect id="label6_bg" class="for_r6" x="315.34152" y="60.69349" width="65.82813" height="22" rx="3.75" fill="#fff" fill-opacity="0.55" stroke="none" stroke-width="0" stroke-opacity="0" transform="translate(69.25818,-20.04124)"></rect>
<text id="label6" class="for_r6" text-anchor="end" x="376.79464" y="71.86849" dy="5.074999999999999" transform="translate(69.25818,-20.04124)">Test 2: 2</text>
<rect id="label7_bg" class="for_r7" x="257.8259" y="44.6708" width="123.34375" height="22" rx="3.75" fill="#fff" fill-opacity="0.55" stroke="none" stroke-width="0" stroke-opacity="0" transform="translate(233.69647,-25.31916)"></rect>
<text id="label7" class="for_r7" text-anchor="end" x="376.79464" y="55.8458" dy="5.074999999999999" transform="translate(233.69647,-25.31916)">Day 2 Shortlist: 1</text>
<rect id="label8_bg" class="for_r8" x="639.68304" y="21.01224" width="124.1875" height="22" rx="3.75" fill="#fff" fill-opacity="0.55" stroke="none" stroke-width="0" stroke-opacity="0" transform="translate(-60,290.58902)"></rect>
<text id="label8" class="for_r8" text-anchor="end" x="759.49554" y="32.18724" dy="5.074999999999999" transform="translate(-60,290.58902)">Not Shortlisted: 8</text>
<rect id="label9_bg" class="for_r9" x="442.90851" y="64.52383" width="65.82813" height="22" rx="3.75" fill="#fff" fill-opacity="0.55" stroke="none" stroke-width="0" stroke-opacity="0" transform="translate(62.07499,-13.01322)"></rect>
<text id="label9" class="for_r9" text-anchor="end" x="504.36161" y="75.69883" dy="5.074999999999999" transform="translate(62.07499,-13.01322)">Test 3: 1</text>
<rect id="label10_bg" class="for_r10" x="460.43195" y="51.97871" width="48.30469" height="22" rx="3.75" fill="#fff" fill-opacity="0.55" stroke="none" stroke-width="0" stroke-opacity="0" transform="translate(60.56919,53.0539)"></rect>
<text id="label10" class="for_r10" text-anchor="end" x="504.36161" y="63.15371" dy="5.074999999999999" transform="translate(60.56919,53.0539)">GD: 1</text>
<rect id="label11_bg" class="for_r11" x="522.13953" y="50.11906" width="114.16406" height="22" rx="3.75" fill="#fff" fill-opacity="0.55" stroke="none" stroke-width="0" stroke-opacity="0" transform="translate(2.74432,110.11187)"></rect>
<text id="label11" class="for_r11" text-anchor="end" x="631.92857" y="61.29406" dy="5.074999999999999" transform="translate(2.74432,110.11187)">Pre-Interview: 1</text>
<rect id="label12_bg" class="for_r12" x="298.66183" y="83.6713" width="82.50781" height="22" rx="3.75" fill="#fff" fill-opacity="0.55" stroke="none" stroke-width="0" stroke-opacity="0" transform="translate(-9.05055,81.25403)"></rect>
<text id="label12" class="for_r12" text-anchor="end" x="376.79464" y="94.8463" dy="5.074999999999999" transform="translate(-9.05055,81.25403)">Ghosted: 3</text>
<rect id="label13_bg" class="for_r13" x="697.48773" y="66.69305" width="66.38281" height="22" rx="3.75" fill="#fff" fill-opacity="0.55" stroke="none" stroke-width="0" stroke-opacity="0" transform="translate(24.55016,-56.11547)"></rect>
<text id="label13" class="for_r13" text-anchor="end" x="759.49554" y="77.86805" dy="5.074999999999999" transform="translate(24.55016,-56.11547)">Offers: 2</text>
<rect id="label14_bg" class="for_r14" x="807.25781" y="63.19974" width="84.17969" height="22" rx="3.75" fill="#fff" fill-opacity="0.55" stroke="none" stroke-width="0" stroke-opacity="0" transform="translate(0,-70.89718)"></rect>
<text id="label14" class="for_r14" text-anchor="end" x="887.0625" y="74.37474" dy="5.074999999999999" transform="translate(0,-70.89718)">Selected: 1</text>
<rect id="label15_bg" class="for_r15" x="806.42969" y="75.74486" width="85.00781" height="22" rx="3.75" fill="#fff" fill-opacity="0.55" stroke="none" stroke-width="0" stroke-opacity="0" transform="translate(-2,-44.04475)"></rect>
<text id="label15" class="for_r15" text-anchor="end" x="887.0625" y="86.91986" dy="5.074999999999999" transform="translate(-2,-44.04475)">Rejected: 1</text>
</g>
</g></svg>
